# Blender v3.0.0 OBJ File: ''
# www.blender.org
mtllib hourglass.mtl
o Cylinder
v 0.000000 0.020381 -1.000000
v 0.000000 3.132512 -1.000000
v 0.707107 0.020381 -0.707107
v 0.707107 3.132512 -0.707107
v 1.000000 0.020381 0.000000
v 1.000000 3.132512 0.000000
v 0.707107 0.020381 0.707107
v 0.707107 3.132512 0.707107
v -0.000000 0.020381 1.000000
v -0.000000 3.132512 1.000000
v -0.707107 0.020381 0.707107
v -0.707107 3.132512 0.707107
v -1.000000 0.020381 -0.000000
v -1.000000 3.132512 -0.000000
v -0.707107 0.020381 -0.707107
v -0.707107 3.132512 -0.707107
v 0.000000 0.262201 -1.000000
v -0.000000 1.330447 -0.561537
v -0.000000 1.822446 -0.561537
v 0.000000 2.890692 -1.000000
v 0.707107 2.890692 -0.707107
v 0.397067 1.822446 -0.397067
v 0.397067 1.330447 -0.397067
v 0.707107 0.262201 -0.707107
v 1.000000 2.890692 0.000000
v 0.561537 1.822446 0.000000
v 0.561537 1.330447 0.000000
v 1.000000 0.262201 0.000000
v 0.707107 2.890692 0.707107
v 0.397067 1.822446 0.397067
v 0.397067 1.330447 0.397067
v 0.707107 0.262201 0.707107
v -0.000000 2.890692 1.000000
v -0.000000 1.822446 0.561537
v -0.000000 1.330447 0.561537
v -0.000000 0.262201 1.000000
v -0.707107 2.890692 0.707107
v -0.397067 1.822446 0.397067
v -0.397067 1.330447 0.397067
v -0.707107 0.262201 0.707107
v -1.000000 2.890692 -0.000000
v -0.561537 1.822446 -0.000000
v -0.561537 1.330447 -0.000000
v -1.000000 0.262201 -0.000000
v -0.707107 2.890692 -0.707107
v -0.397067 1.822446 -0.397067
v -0.397067 1.330447 -0.397067
v -0.707107 0.262201 -0.707107
vt 1.000000 1.000000
vt 0.875000 0.900000
vt 1.000000 0.900000
vt 0.875000 1.000000
vt 0.750000 0.900000
vt 0.750000 1.000000
vt 0.625000 0.900000
vt 0.625000 1.000000
vt 0.500000 0.900000
vt 0.500000 1.000000
vt 0.375000 0.900000
vt 0.375000 1.000000
vt 0.250000 0.900000
vt 0.490000 0.250000
vt 0.250000 0.490000
vt 0.010000 0.250000
vt 0.250000 1.000000
vt 0.125000 0.900000
vt 0.125000 1.000000
vt 0.000000 0.900000
vt 0.919706 0.080294
vt 0.580294 0.080294
vt 0.580294 0.419706
vt 0.125000 0.600000
vt 0.000000 0.500000
vt 0.125000 0.500000
vt 0.125000 0.700000
vt 0.000000 0.600000
vt 0.125000 0.800000
vt 0.000000 0.700000
vt 0.000000 0.800000
vt 0.250000 0.600000
vt 0.250000 0.500000
vt 0.250000 0.800000
vt 0.250000 0.700000
vt 0.375000 0.600000
vt 0.375000 0.500000
vt 0.375000 0.800000
vt 0.375000 0.700000
vt 0.500000 0.600000
vt 0.500000 0.500000
vt 0.500000 0.700000
vt 0.500000 0.800000
vt 0.625000 0.600000
vt 0.625000 0.500000
vt 0.625000 0.700000
vt 0.625000 0.800000
vt 0.750000 0.600000
vt 0.750000 0.500000
vt 0.750000 0.700000
vt 0.750000 0.800000
vt 0.875000 0.600000
vt 0.875000 0.500000
vt 0.875000 0.700000
vt 0.875000 0.800000
vt 1.000000 0.600000
vt 1.000000 0.500000
vt 1.000000 0.700000
vt 1.000000 0.800000
vt 0.419706 0.419706
vt 0.080294 0.419706
vt 0.080294 0.080294
vt 0.250000 0.010000
vt 0.419706 0.080294
vt 0.000000 1.000000
vt 0.750000 0.490000
vt 0.919706 0.419706
vt 0.990000 0.250000
vt 0.750000 0.010000
vt 0.510000 0.250000
vn 0.3827 0.0000 -0.9239
vn 0.9239 0.0000 -0.3827
vn 0.9239 0.0000 0.3827
vn 0.3827 0.0000 0.9239
vn -0.3827 0.0000 0.9239
vn -0.9239 0.0000 0.3827
vn 0.0000 1.0000 0.0000
vn -0.9239 0.0000 -0.3827
vn -0.3827 0.0000 -0.9239
vn 0.0000 -1.0000 -0.0000
vn -0.3578 0.3546 -0.8639
vn -0.3578 -0.3546 -0.8639
vn -0.8639 0.3546 -0.3578
vn -0.8639 -0.3546 -0.3578
vn -0.8639 0.3546 0.3578
vn -0.8639 -0.3546 0.3578
vn -0.3578 0.3546 0.8639
vn -0.3578 -0.3546 0.8639
vn 0.3578 0.3546 0.8639
vn 0.3578 -0.3546 0.8639
vn 0.8639 0.3546 0.3578
vn 0.8639 -0.3546 0.3578
vn 0.8639 0.3546 -0.3578
vn 0.8639 -0.3546 -0.3578
vn 0.3578 0.3546 -0.8639
vn 0.3578 -0.3546 -0.8639
usemtl None
s off
f 2/1/1 21/2/1 20/3/1
f 4/4/2 25/5/2 21/2/2
f 6/6/3 29/7/3 25/5/3
f 8/8/4 33/9/4 29/7/4
f 10/10/5 37/11/5 33/9/5
f 12/12/6 41/13/6 37/11/6
f 6/14/7 2/15/7 14/16/7
f 14/17/8 45/18/8 41/13/8
f 16/19/9 20/20/9 45/18/9
f 7/21/10 11/22/10 15/23/10
f 48/24/9 1/25/9 15/26/9
f 47/27/11 17/28/11 48/24/11
f 46/29/9 18/30/9 47/27/9
f 46/29/12 20/20/12 19/31/12
f 44/32/8 15/26/8 13/33/8
f 44/32/13 47/27/13 48/24/13
f 42/34/8 47/27/8 43/35/8
f 41/13/14 46/29/14 42/34/14
f 40/36/6 13/33/6 11/37/6
f 40/36/15 43/35/15 44/32/15
f 38/38/6 43/35/6 39/39/6
f 37/11/16 42/34/16 38/38/16
f 36/40/5 11/37/5 9/41/5
f 35/42/17 40/36/17 36/40/17
f 34/43/5 39/39/5 35/42/5
f 33/9/18 38/38/18 34/43/18
f 32/44/4 9/41/4 7/45/4
f 31/46/19 36/40/19 32/44/19
f 30/47/4 35/42/4 31/46/4
f 29/7/20 34/43/20 30/47/20
f 28/48/3 7/45/3 5/49/3
f 27/50/21 32/44/21 28/48/21
f 26/51/3 31/46/3 27/50/3
f 25/5/22 30/47/22 26/51/22
f 24/52/2 5/49/2 3/53/2
f 23/54/23 28/48/23 24/52/23
f 22/55/2 27/50/2 23/54/2
f 21/2/24 26/51/24 22/55/24
f 17/56/1 3/53/1 1/57/1
f 18/58/25 24/52/25 17/56/25
f 19/59/1 23/54/1 18/58/1
f 20/3/26 22/55/26 19/59/26
f 2/1/1 4/4/1 21/2/1
f 4/4/2 6/6/2 25/5/2
f 6/6/3 8/8/3 29/7/3
f 8/8/4 10/10/4 33/9/4
f 10/10/5 12/12/5 37/11/5
f 12/12/6 14/17/6 41/13/6
f 6/14/7 4/60/7 2/15/7
f 2/15/7 16/61/7 14/16/7
f 14/16/7 12/62/7 10/63/7
f 10/63/7 8/64/7 14/16/7
f 8/64/7 6/14/7 14/16/7
f 14/17/8 16/19/8 45/18/8
f 16/19/9 2/65/9 20/20/9
f 15/23/10 1/66/10 3/67/10
f 3/67/10 5/68/10 7/21/10
f 7/21/10 9/69/10 11/22/10
f 11/22/10 13/70/10 15/23/10
f 15/23/10 3/67/10 7/21/10
f 48/24/9 17/28/9 1/25/9
f 47/27/11 18/30/11 17/28/11
f 46/29/9 19/31/9 18/30/9
f 46/29/12 45/18/12 20/20/12
f 44/32/8 48/24/8 15/26/8
f 44/32/13 43/35/13 47/27/13
f 42/34/8 46/29/8 47/27/8
f 41/13/14 45/18/14 46/29/14
f 40/36/6 44/32/6 13/33/6
f 40/36/15 39/39/15 43/35/15
f 38/38/6 42/34/6 43/35/6
f 37/11/16 41/13/16 42/34/16
f 36/40/5 40/36/5 11/37/5
f 35/42/17 39/39/17 40/36/17
f 34/43/5 38/38/5 39/39/5
f 33/9/18 37/11/18 38/38/18
f 32/44/4 36/40/4 9/41/4
f 31/46/19 35/42/19 36/40/19
f 30/47/4 34/43/4 35/42/4
f 29/7/20 33/9/20 34/43/20
f 28/48/3 32/44/3 7/45/3
f 27/50/21 31/46/21 32/44/21
f 26/51/3 30/47/3 31/46/3
f 25/5/22 29/7/22 30/47/22
f 24/52/2 28/48/2 5/49/2
f 23/54/23 27/50/23 28/48/23
f 22/55/2 26/51/2 27/50/2
f 21/2/24 25/5/24 26/51/24
f 17/56/1 24/52/1 3/53/1
f 18/58/25 23/54/25 24/52/25
f 19/59/1 22/55/1 23/54/1
f 20/3/26 21/2/26 22/55/26
