# Blender v3.0.0 OBJ File: ''
# www.blender.org
mtllib two_planes.mtl
o Plane
v 0.000000 0.707107 -1.787492
v -2.000000 0.707107 -1.787492
v 0.000000 -0.707107 -0.373279
v -2.000000 -0.707107 -0.373279
v -1.000000 -0.707107 0.707107
v 1.000000 -0.707107 0.707107
v -1.000000 0.707107 -0.707107
v 1.000000 0.707107 -0.707107
vt 1.000000 0.000000
vt 1.000000 1.000000
vt 0.000000 1.000000
vt 0.000000 0.000000
vt 1.000000 0.000000
vt 0.000000 1.000000
vt 0.000000 0.000000
vt 1.000000 1.000000
vn 0.0000 0.7071 0.7071
usemtl None
s off
f 3/1/1 1/2/1 2/3/1
f 3/1/1 2/3/1 4/4/1
f 6/5/1 7/6/1 5/7/1
f 6/5/1 8/8/1 7/6/1
